# xmcd
#
# Track frame offsets:
#	150
#	17188
#	34517
#	51756
#	71770
#	89139
#	104998
#	124186
#	143618
#	160355
#	178261
#	192444
#	209846
#	232327
#	248830
#	273642
#
# Disc length: 3663 seconds
#
# Revision: 1
# Processed by: cddbd v1.5.1PL0 Copyright (c) Steve Scherf et al.
# Submitted via: audiograbber 1.83.01
#
DISCID=060e4d10
DTITLE=Chartbuster - 60339
DYEAR=2005
DGENRE=Karaoke
TTITLE0=CB60339-01 - Sugarland - Somethiing More
TTITLE1=CB60339-02 - Twain, Shania - I Ain't No Quitter
TTITLE2=CB60339-03 - Aldean, Jason - Hicktown
TTITLE3=CB60339-04 - Lambert, Miranda - Bring Me Down
TTITLE4=CB60339-05 - Womack, Lee Ann - He Oughta Know That By Now
TTITLE5=CB60339-06 - Chesnutt, Mark - Hard Secret To Keep, A
TTITLE6=CB60339-07 - Evans, Sara - Real Fine Place To Start, A
TTITLE7=CB60339-08 - Gracin, Josh - Stay With Me (Brass Bed)
TTITLE8=CB60339-09 - Carter, Deana - Girl You Left Me For, The
TTITLE9=CB60339-10 - Travis, Randy - Angels
TTITLE10=CB60339-11 - Lucas, Lauren - What You Ain't Gonna Get
TTITLE11=CB60339-12 - Shupe, Ryan and The Rubberband - Dream Big
TTITLE12=CB60339-13 - Yearwood, Trisha - Georgia Rain
TTITLE13=CB60339-14 - Cowboy Crush - Nobody Died Of A Broken Heart
TTITLE14=CB60339-15 - Dean, Billy - This Is The Life
TTITLE15=no track
EXTD=
EXTT0=
EXTT1=
EXTT2=
EXTT3=
EXTT4=
EXTT5=
EXTT6=
EXTT7=
EXTT8=
EXTT9=
EXTT10=
EXTT11=
EXTT12=
EXTT13=
EXTT14=
EXTT15=
PLAYORDER=
